<svg width="281" height="281" viewBox="0 0 281 281" fill="none" xmlns="http://www.w3.org/2000/svg">
<circle cx="140.5" cy="140.5" r="135.5" fill="#6466E9" fill-opacity="0.84" stroke="#BEBEBE" stroke-width="10"/>
<path d="M86.468 130.466H17L32.5216 140.089L88.121 135.518C88.465 135.489 88.7682 135.72 88.8139 136.039C88.862 136.36 88.6311 136.654 88.2942 136.713L39.8216 145.107L51.8038 153.357L95.2405 144.001C91.6122 139.987 88.6864 135.478 86.468 130.466Z" fill="white"/>
<path d="M71.4975 166.926L71.7814 167.118C75.891 169.783 80.5058 171.111 85.6693 171.114C94.5404 171.118 105.081 167.125 117.225 159.07C113.837 157.64 110.68 156.051 107.769 154.264L71.4975 166.926Z" fill="white"/>
<path d="M98.147 146.985L57.0706 156.99L66.7214 163.652L104.191 151.915C102.021 150.375 100.005 148.736 98.147 146.985Z" fill="white"/>
<path d="M192.543 135.518L248.143 140.088L263.665 130.466H194.193C191.972 135.477 189.046 139.986 185.423 144L228.861 153.355L240.846 145.106L192.369 136.713C192.032 136.654 191.801 136.357 191.85 136.038C191.895 135.717 192.198 135.489 192.543 135.518Z" fill="white"/>
<path d="M163.436 159.07C175.579 167.127 186.121 171.12 194.992 171.114C200.156 171.111 204.77 169.781 208.88 167.118L209.164 166.926L172.891 154.267C169.98 156.052 166.821 157.641 163.436 159.07Z" fill="white"/>
<path d="M176.469 151.912L213.94 163.647L223.591 156.989L182.514 146.984C180.656 148.735 178.64 150.373 176.469 151.912Z" fill="white"/>
<path d="M126.045 179.956V137.367H135.947V156.145H136.565L153.418 137.367H165.287L147.907 156.436L165.493 179.956H153.647L140.818 162.446L135.947 167.853V179.956H126.045Z" fill="white"/>
</svg>
