<svg width="280" height="91" viewBox="0 0 280 91" fill="none" xmlns="http://www.w3.org/2000/svg">
    <path
        d="M78.7492 9.30682H0L17.5953 21.3025L80.623 15.605C81.013 15.5684 81.3567 15.8561 81.4085 16.2537C81.463 16.6543 81.2012 17.0209 80.8193 17.0943L25.8706 27.5583L39.4537 37.8419L88.6937 26.1791C84.5806 21.1755 81.2639 15.5543 78.7492 9.30682Z"
        fill="white" />
    <path
        d="M61.7785 54.7565L62.1004 54.9963C66.759 58.3188 71.9904 59.9745 77.8437 59.9773C87.9001 59.9829 99.8494 55.0047 113.615 44.9637C109.775 43.1811 106.196 41.2011 102.896 38.9729L61.7785 54.7565Z"
        fill="white" />
    <path
        d="M91.9885 29.8994L45.4242 42.3717L56.3643 50.6752L98.8401 36.0452C96.3798 34.1245 94.0942 32.0824 91.9885 29.8994Z"
        fill="white" />
    <path
        d="M198.996 15.6047L262.024 21.3018L279.62 9.30682H200.867C198.349 15.5539 195.032 21.1749 190.925 26.1782L240.166 37.8403L253.752 27.5573L198.799 17.0938C198.417 17.0205 198.155 16.651 198.21 16.2534C198.262 15.8529 198.605 15.568 198.996 15.6047Z"
        fill="white" />
    <path
        d="M166 44.9645C179.766 55.0078 191.716 59.9857 201.772 59.9773C207.626 59.9744 212.857 58.3161 217.516 54.9965L217.838 54.7568L176.719 38.9769C173.419 41.2022 169.838 43.182 166 44.9645Z"
        fill="white" />
    <path
        d="M180.775 36.0409L223.252 50.6701L234.192 42.3698L187.627 29.8982C185.521 32.0811 183.236 34.123 180.775 36.0409Z"
        fill="white" />
    <path
        d="M123.614 71V17.9091H134.839V41.3178H135.539L154.644 17.9091H168.099L148.397 41.6808L168.332 71H154.904L140.361 49.1726L134.839 55.9126V71H123.614Z"
        fill="white" />
</svg>