<svg width="384" height="139" viewBox="0 0 384 139" fill="none" xmlns="http://www.w3.org/2000/svg">
<path d="M142.621 0L45 0L66.812 14.3802L144.944 7.55018C145.428 7.50623 145.854 7.8511 145.918 8.32785C145.986 8.80798 145.661 9.24753 145.188 9.33544L77.0705 21.8796L93.9088 34.2074L154.949 20.2262C149.85 14.228 145.739 7.48931 142.621 0Z" fill="white"/>
<path d="M121.584 54.4843L121.983 54.7717C127.758 58.7548 134.243 60.7395 141.499 60.7429C153.965 60.7497 168.778 54.7819 185.843 42.7449C181.082 40.608 176.646 38.2344 172.555 35.5632L121.584 54.4843Z" fill="white"/>
<path d="M159.034 24.686L101.31 39.6375L114.872 49.5917L167.527 32.0536C164.477 29.751 161.644 27.303 159.034 24.686Z" fill="white"/>
<path d="M239.587 7.55018L317.719 14.3802L339.531 0L241.906 0C238.786 7.48931 234.674 14.228 229.582 20.2262L290.622 34.2074L307.464 21.8796L239.344 9.33544C238.87 9.24753 238.546 8.8046 238.613 8.32785C238.677 7.84772 239.103 7.50623 239.587 7.55018Z" fill="white"/>
<path d="M198.685 42.7482C215.75 54.7886 230.563 60.7564 243.029 60.7462C250.285 60.7429 256.77 58.7547 262.545 54.7751L262.944 54.4877L211.973 35.57C207.882 38.2377 203.442 40.6113 198.685 42.7482Z" fill="white"/>
<path d="M217.001 32.0502L269.656 49.5883L283.218 39.6375L225.494 24.686C222.884 27.303 220.05 29.751 217.001 32.0502Z" fill="white"/>
<path d="M4.61435 122V68.9091H15.8391V92.3178H16.5391L35.6445 68.9091H49.0987L29.397 92.6808L49.332 122H35.9038L21.3608 100.173L15.8391 106.913V122H4.61435ZM66.0914 122.752C63.551 122.752 61.287 122.311 59.2995 121.43C57.3121 120.531 55.7394 119.209 54.5815 117.463C53.4409 115.701 52.8706 113.506 52.8706 110.879C52.8706 108.667 53.2767 106.809 54.089 105.305C54.9012 103.802 56.0073 102.592 57.4071 101.676C58.807 100.76 60.397 100.069 62.177 99.6023C63.9744 99.1357 65.8581 98.8073 67.8283 98.6172C70.1441 98.3752 72.0106 98.1506 73.4277 97.9432C74.8449 97.7185 75.8732 97.3902 76.5126 96.9581C77.152 96.526 77.4718 95.8866 77.4718 95.0398V94.8842C77.4718 93.2424 76.9533 91.9722 75.9164 91.0735C74.8967 90.1748 73.445 89.7255 71.5613 89.7255C69.5738 89.7255 67.9925 90.1662 66.8173 91.0476C65.6421 91.9117 64.8644 93.0005 64.4842 94.3139L54.2704 93.4844C54.7889 91.0649 55.8085 88.9737 57.3294 87.2109C58.8502 85.4309 60.8117 84.0656 63.214 83.1151C65.6335 82.1473 68.4332 81.6634 71.6131 81.6634C73.8252 81.6634 75.9423 81.9226 77.9643 82.441C80.0036 82.9595 81.8096 83.7631 83.3823 84.8519C84.9722 85.9407 86.2252 87.3406 87.1412 89.0515C88.0571 90.7451 88.5151 92.7758 88.5151 95.1435V122H78.0421V116.478H77.731C77.0916 117.723 76.2361 118.82 75.1646 119.771C74.0931 120.704 72.8056 121.438 71.302 121.974C69.7985 122.493 68.0616 122.752 66.0914 122.752ZM69.2541 115.13C70.8786 115.13 72.313 114.811 73.5574 114.171C74.8017 113.514 75.7781 112.633 76.4867 111.527C77.1953 110.421 77.5495 109.168 77.5495 107.768V103.543C77.2039 103.767 76.7286 103.975 76.1238 104.165C75.5362 104.338 74.8708 104.502 74.1277 104.657C73.3845 104.796 72.6414 104.925 71.8983 105.046C71.1551 105.15 70.4811 105.245 69.8762 105.331C68.5801 105.521 67.4481 105.824 66.4803 106.239C65.5125 106.653 64.7607 107.215 64.225 107.924C63.6892 108.615 63.4213 109.479 63.4213 110.516C63.4213 112.02 63.9657 113.169 65.0545 113.964C66.1606 114.741 67.5604 115.13 69.2541 115.13ZM97.0827 122V82.1818H108.126V122H97.0827ZM102.63 77.049C100.989 77.049 99.58 76.5046 98.4048 75.4158C97.2469 74.3098 96.668 72.9877 96.668 71.4496C96.668 69.9287 97.2469 68.6239 98.4048 67.5352C99.58 66.4291 100.989 65.8761 102.63 65.8761C104.272 65.8761 105.672 66.4291 106.83 67.5352C108.005 68.6239 108.593 69.9287 108.593 71.4496C108.593 72.9877 108.005 74.3098 106.83 75.4158C105.672 76.5046 104.272 77.049 102.63 77.049ZM116.972 122V82.1818H127.679V89.1293H128.093C128.819 86.6579 130.038 84.7914 131.749 83.5298C133.46 82.2509 135.43 81.6115 137.659 81.6115C138.212 81.6115 138.808 81.6461 139.448 81.7152C140.087 81.7843 140.649 81.8794 141.133 82.0004V91.7994C140.614 91.6438 139.897 91.5056 138.981 91.3846C138.065 91.2636 137.227 91.2031 136.467 91.2031C134.842 91.2031 133.39 91.5574 132.112 92.266C130.85 92.9573 129.848 93.9251 129.104 95.1694C128.379 96.4137 128.016 97.8481 128.016 99.4727V122H116.972ZM162.98 122.778C158.953 122.778 155.471 121.922 152.533 120.211C149.612 118.483 147.357 116.081 145.767 113.005C144.177 109.911 143.382 106.325 143.382 102.246C143.382 98.1333 144.177 94.5386 145.767 91.4624C147.357 88.3688 149.612 85.9666 152.533 84.2557C155.471 82.5275 158.953 81.6634 162.98 81.6634C167.007 81.6634 170.48 82.5275 173.401 84.2557C176.339 85.9666 178.603 88.3688 180.193 91.4624C181.783 94.5386 182.578 98.1333 182.578 102.246C182.578 106.325 181.783 109.911 180.193 113.005C178.603 116.081 176.339 118.483 173.401 120.211C170.48 121.922 167.007 122.778 162.98 122.778ZM163.032 114.223C164.864 114.223 166.393 113.705 167.62 112.668C168.847 111.613 169.772 110.179 170.394 108.364C171.033 106.55 171.353 104.484 171.353 102.169C171.353 99.8529 171.033 97.7876 170.394 95.973C169.772 94.1584 168.847 92.724 167.62 91.6697C166.393 90.6155 164.864 90.0884 163.032 90.0884C161.182 90.0884 159.627 90.6155 158.365 91.6697C157.121 92.724 156.179 94.1584 155.54 95.973C154.918 97.7876 154.607 99.8529 154.607 102.169C154.607 104.484 154.918 106.55 155.54 108.364C156.179 110.179 157.121 111.613 158.365 112.668C159.627 113.705 161.182 114.223 163.032 114.223ZM225.597 82.1818L211.677 122H199.233L185.313 82.1818H196.978L205.248 110.672H205.662L213.906 82.1818H225.597ZM248.112 122.778C244.016 122.778 240.49 121.948 237.535 120.289C234.597 118.613 232.333 116.245 230.743 113.186C229.153 110.11 228.358 106.472 228.358 102.272C228.358 98.1765 229.153 94.5818 230.743 91.4883C232.333 88.3948 234.571 85.9839 237.457 84.2557C240.361 82.5275 243.765 81.6634 247.671 81.6634C250.298 81.6634 252.743 82.0868 255.007 82.9336C257.289 83.7631 259.276 85.0161 260.97 86.6925C262.681 88.3688 264.011 90.4773 264.962 93.0178C265.913 95.541 266.388 98.4962 266.388 101.884V104.917H232.765V98.0728H255.993C255.993 96.4828 255.647 95.0743 254.956 93.8473C254.264 92.6203 253.305 91.6611 252.078 90.9698C250.868 90.2612 249.46 89.907 247.853 89.907C246.176 89.907 244.69 90.2958 243.394 91.0735C242.115 91.8339 241.113 92.8622 240.387 94.1584C239.661 95.4373 239.289 96.863 239.272 98.4357V104.942C239.272 106.913 239.635 108.615 240.361 110.049C241.104 111.484 242.15 112.59 243.498 113.368C244.846 114.145 246.444 114.534 248.293 114.534C249.52 114.534 250.644 114.361 251.663 114.016C252.683 113.67 253.556 113.152 254.282 112.46C255.007 111.769 255.56 110.922 255.941 109.92L266.154 110.594C265.636 113.048 264.573 115.191 262.966 117.023C261.376 118.837 259.319 120.254 256.796 121.274C254.29 122.277 251.395 122.778 248.112 122.778ZM273.594 122V82.1818H284.301V89.1293H284.716C285.441 86.6579 286.66 84.7914 288.371 83.5298C290.082 82.2509 292.052 81.6115 294.281 81.6115C294.834 81.6115 295.431 81.6461 296.07 81.7152C296.709 81.7843 297.271 81.8794 297.755 82.0004V91.7994C297.237 91.6438 296.519 91.5056 295.603 91.3846C294.687 91.2636 293.849 91.2031 293.089 91.2031C291.464 91.2031 290.013 91.5574 288.734 92.266C287.472 92.9573 286.47 93.9251 285.727 95.1694C285.001 96.4137 284.638 97.8481 284.638 99.4727V122H273.594ZM336.595 93.5362L326.484 94.1584C326.312 93.2943 325.94 92.5166 325.37 91.8253C324.799 91.1167 324.048 90.555 323.114 90.1403C322.198 89.7082 321.101 89.4922 319.822 89.4922C318.111 89.4922 316.668 89.8551 315.493 90.581C314.318 91.2895 313.73 92.2401 313.73 93.4325C313.73 94.383 314.11 95.1867 314.871 95.8434C315.631 96.5001 316.936 97.0272 318.785 97.4247L325.992 98.8764C329.863 99.6714 332.749 100.95 334.65 102.713C336.551 104.476 337.502 106.792 337.502 109.661C337.502 112.27 336.733 114.56 335.195 116.53C333.674 118.5 331.583 120.038 328.921 121.145C326.277 122.233 323.227 122.778 319.77 122.778C314.499 122.778 310.3 121.68 307.172 119.485C304.061 117.273 302.238 114.266 301.702 110.464L312.564 109.894C312.892 111.501 313.687 112.728 314.949 113.575C316.21 114.404 317.826 114.819 319.796 114.819C321.732 114.819 323.287 114.448 324.462 113.705C325.655 112.944 326.26 111.968 326.277 110.775C326.26 109.773 325.836 108.952 325.007 108.312C324.177 107.656 322.898 107.155 321.17 106.809L314.275 105.435C310.386 104.657 307.491 103.309 305.59 101.391C303.707 99.4727 302.765 97.0272 302.765 94.0547C302.765 91.4969 303.456 89.2934 304.839 87.4442C306.238 85.5951 308.2 84.1693 310.723 83.1669C313.264 82.1645 316.236 81.6634 319.641 81.6634C324.67 81.6634 328.627 82.7262 331.514 84.8519C334.417 86.9776 336.111 89.8724 336.595 93.5362ZM362.602 122.778C358.506 122.778 354.981 121.948 352.025 120.289C349.087 118.613 346.823 116.245 345.233 113.186C343.644 110.11 342.849 106.472 342.849 102.272C342.849 98.1765 343.644 94.5818 345.233 91.4883C346.823 88.3948 349.061 85.9839 351.948 84.2557C354.851 82.5275 358.256 81.6634 362.161 81.6634C364.788 81.6634 367.234 82.0868 369.498 82.9336C371.779 83.7631 373.766 85.0161 375.46 86.6925C377.171 88.3688 378.502 90.4773 379.452 93.0178C380.403 95.541 380.878 98.4962 380.878 101.884V104.917H347.256V98.0728H370.483C370.483 96.4828 370.137 95.0743 369.446 93.8473C368.755 92.6203 367.795 91.6611 366.568 90.9698C365.359 90.2612 363.95 89.907 362.343 89.907C360.666 89.907 359.18 90.2958 357.884 91.0735C356.605 91.8339 355.603 92.8622 354.877 94.1584C354.151 95.4373 353.78 96.863 353.762 98.4357V104.942C353.762 106.913 354.125 108.615 354.851 110.049C355.594 111.484 356.64 112.59 357.988 113.368C359.336 114.145 360.934 114.534 362.784 114.534C364.011 114.534 365.134 114.361 366.154 114.016C367.173 113.67 368.046 113.152 368.772 112.46C369.498 111.769 370.051 110.922 370.431 109.92L380.645 110.594C380.126 113.048 379.063 115.191 377.456 117.023C375.866 118.837 373.81 120.254 371.286 121.274C368.78 122.277 365.886 122.778 362.602 122.778Z" fill="white"/>
</svg>
